G04*
G04 #@! TF.GenerationSoftware,Altium Limited,Altium Designer,22.5.1 (42)*
G04*
G04 Layer_Color=16711935*
%FSLAX24Y24*%
%MOIN*%
G70*
G04*
G04 #@! TF.SameCoordinates,5C00E3EC-F711-4006-A76F-14F01AC31ACF*
G04*
G04*
G04 #@! TF.FilePolarity,Positive*
G04*
G01*
G75*
%ADD23C,0.0020*%
G36*
X21331Y110040D02*
X21333Y110036D01*
X21364Y110033D01*
X21369Y110028D01*
X21370Y110025D01*
X21374Y110023D01*
X21377Y110020D01*
X21379Y110016D01*
X21386Y110012D01*
X21387Y109981D01*
X21396Y109974D01*
X21397Y109933D01*
X21406Y109928D01*
X21408Y109858D01*
X21414Y109854D01*
X21415Y109847D01*
X21413Y109845D01*
Y109843D01*
X21414Y109734D01*
X21411Y109728D01*
X21406Y109727D01*
X21404Y109685D01*
X21401Y109682D01*
X21396Y109681D01*
X21394Y109648D01*
X21391Y109645D01*
X21387Y109643D01*
X21386Y109620D01*
X21377Y109614D01*
X21376Y109591D01*
X21369Y109588D01*
X21367Y109581D01*
X21365Y109563D01*
X21360Y109560D01*
X21358Y109552D01*
X21360Y109544D01*
X21354Y109534D01*
X21350Y109531D01*
X21347Y109518D01*
X21340Y109511D01*
X21338Y109500D01*
X21335Y109497D01*
X21332Y109495D01*
X21329Y109492D01*
X21328Y109489D01*
X21324Y109487D01*
X21321Y109479D01*
X21319Y109471D01*
X21313Y109467D01*
X21311Y109459D01*
X21309Y109453D01*
X21294Y109438D01*
X21292Y109426D01*
X21275Y109409D01*
X21273Y109398D01*
X21248Y109373D01*
X21246Y109361D01*
X21243Y109358D01*
X21239Y109356D01*
X21236Y109353D01*
X21235Y109350D01*
X21231Y109348D01*
X21228Y109346D01*
X21226Y109342D01*
X21220Y109337D01*
X21217Y109334D01*
X21216Y109331D01*
X21212Y109329D01*
X21209Y109326D01*
X21207Y109322D01*
X21200Y109318D01*
X21199Y109314D01*
X21195Y109312D01*
X21190Y109307D01*
X21189Y109304D01*
X21185Y109302D01*
X21182Y109299D01*
X21180Y109295D01*
X21173Y109291D01*
X21171Y109288D01*
X21170Y109285D01*
X21166Y109283D01*
X21163Y109280D01*
X21161Y109276D01*
X21154Y109271D01*
X21152Y109267D01*
X21148Y109265D01*
X21144Y109261D01*
X21143Y109258D01*
X21139Y109256D01*
X21136Y109253D01*
X21134Y109249D01*
X21127Y109244D01*
X21123Y109239D01*
X21109Y109236D01*
X21107Y109232D01*
X21077Y109202D01*
X21069Y109200D01*
X21064Y109198D01*
X21039Y109173D01*
X21027Y109171D01*
X21012Y109156D01*
X21004Y109154D01*
X20998Y109152D01*
X20987Y109141D01*
X20986Y109137D01*
X20974Y109135D01*
X20970Y109133D01*
X20968Y109130D01*
X20965Y109127D01*
X20954Y109125D01*
X20938Y109109D01*
X20931Y109107D01*
X20925Y109105D01*
X20919Y109100D01*
X20907Y109098D01*
X20900Y109090D01*
X20888Y109088D01*
X20885Y109085D01*
X20883Y109081D01*
X20872Y109079D01*
X20868Y109078D01*
X20866Y109074D01*
X20852Y109069D01*
X20846Y109063D01*
X20838Y109061D01*
X20832Y109059D01*
X20826Y109053D01*
X20815Y109052D01*
X20807Y109044D01*
X20796Y109042D01*
X20793Y109039D01*
X20792Y109036D01*
X20784Y109034D01*
X20767Y109032D01*
X20764Y109025D01*
X20739Y109024D01*
X20734Y109015D01*
X20720Y109013D01*
X20716Y109006D01*
X20692Y109004D01*
X20690Y108998D01*
X20682Y108996D01*
X20674Y108998D01*
X20666Y108996D01*
X20664Y108993D01*
X20662Y108989D01*
X20638Y108987D01*
X20632Y108978D01*
X20610Y108977D01*
X20605Y108969D01*
X20572Y108967D01*
X20567Y108960D01*
X20544Y108958D01*
X20541Y108951D01*
X20533Y108949D01*
X20526Y108951D01*
X20499Y108949D01*
X20495Y108942D01*
X20462Y108940D01*
X20457Y108933D01*
X20424Y108931D01*
X20420Y108922D01*
X20378Y108921D01*
X20375Y108915D01*
X20368Y108913D01*
X20313Y108912D01*
X20310Y108905D01*
X20302Y108903D01*
X20294Y108905D01*
X20250Y108903D01*
X20247Y108900D01*
X20245Y108896D01*
X20156Y108894D01*
X20152Y108886D01*
X19889Y108887D01*
X19884Y108895D01*
X19777Y108896D01*
X19774Y108903D01*
X19766Y108905D01*
X19715Y108904D01*
X19711Y108908D01*
X19709Y108912D01*
X19659Y108914D01*
X19655Y108918D01*
X19653Y108921D01*
X19613Y108923D01*
X19609Y108927D01*
X19607Y108931D01*
X19574Y108933D01*
X19569Y108942D01*
X19537Y108944D01*
X19532Y108950D01*
X19512Y108951D01*
X19506Y108949D01*
X19499Y108952D01*
X19496Y108959D01*
X19463Y108961D01*
X19461Y108964D01*
X19460Y108969D01*
X19434Y108971D01*
X19432Y108977D01*
X19408Y108979D01*
X19405Y108983D01*
X19403Y108987D01*
X19380Y108989D01*
X19377Y108996D01*
X19369Y108998D01*
X19355Y108996D01*
X19351Y109000D01*
X19349Y109004D01*
X19326Y109006D01*
X19322Y109010D01*
X19321Y109015D01*
X19298Y109017D01*
X19290Y109025D01*
X19278Y109026D01*
X19275Y109029D01*
X19274Y109032D01*
X19259Y109036D01*
X19255Y109042D01*
X19247Y109044D01*
X19242Y109046D01*
X19236Y109052D01*
X19228Y109053D01*
X19222Y109052D01*
X19215Y109053D01*
X19207Y109061D01*
X19195Y109063D01*
X19193Y109066D01*
X19192Y109069D01*
X19176Y109073D01*
X19171Y109079D01*
X19160Y109081D01*
X19143Y109098D01*
X19136Y109100D01*
X19130Y109102D01*
X19124Y109107D01*
X19113Y109109D01*
X19105Y109117D01*
X19093Y109119D01*
X19090Y109122D01*
X19088Y109126D01*
X19083Y109130D01*
X19081Y109133D01*
X19072Y109136D01*
X19064Y109138D01*
X19055Y109150D01*
X19051Y109154D01*
X19039Y109156D01*
X19022Y109173D01*
X19010Y109175D01*
X18993Y109192D01*
X18990Y109193D01*
X18987Y109200D01*
X18974Y109202D01*
X18937Y109239D01*
X18926Y109240D01*
X18921Y109247D01*
X18917Y109249D01*
X18915Y109253D01*
X18910Y109258D01*
X18907Y109259D01*
X18905Y109263D01*
X18900Y109267D01*
X18898Y109268D01*
X18896Y109272D01*
X18893Y109275D01*
X18889Y109277D01*
X18884Y109284D01*
X18880Y109286D01*
X18878Y109290D01*
X18873Y109294D01*
X18871Y109295D01*
X18869Y109299D01*
X18864Y109304D01*
X18861Y109305D01*
X18859Y109309D01*
X18854Y109314D01*
X18851Y109315D01*
X18849Y109319D01*
X18846Y109321D01*
X18843Y109323D01*
X18838Y109330D01*
X18832Y109334D01*
X18830Y109346D01*
X18803Y109373D01*
X18802Y109375D01*
X18798Y109377D01*
X18795Y109380D01*
X18793Y109388D01*
X18792Y109395D01*
X18786Y109398D01*
X18784Y109401D01*
X18766Y109419D01*
X18765Y109430D01*
X18757Y109438D01*
X18755Y109450D01*
X18748Y109454D01*
X18744Y109460D01*
X18740Y109462D01*
X18738Y109474D01*
X18737Y109478D01*
X18733Y109480D01*
X18730Y109482D01*
X18728Y109494D01*
X18720Y109502D01*
X18718Y109513D01*
X18711Y109521D01*
X18709Y109533D01*
X18701Y109540D01*
X18699Y109561D01*
X18692Y109566D01*
X18691Y109577D01*
X18693Y109581D01*
X18690Y109589D01*
X18684Y109592D01*
X18682Y109598D01*
X18684Y109604D01*
X18679Y109609D01*
X18675Y109611D01*
X18673Y109643D01*
X18664Y109648D01*
X18662Y109681D01*
X18656Y109686D01*
X18654Y109774D01*
X18648Y109776D01*
X18645Y109779D01*
X18647Y109791D01*
X18655Y109795D01*
X18657Y109893D01*
X18664Y109897D01*
X18666Y109920D01*
X18669Y109923D01*
X18673Y109925D01*
X18679Y109933D01*
X18683Y109935D01*
X18686Y109940D01*
X18694Y109942D01*
X18729Y109944D01*
X18734Y109951D01*
X18913Y109953D01*
X18920Y109961D01*
X18934Y109961D01*
X19151Y109961D01*
X19157Y109960D01*
X19166Y109964D01*
X19167Y109968D01*
X19174Y109971D01*
X19180Y109969D01*
X19404Y109971D01*
X19408Y109978D01*
X19654Y109981D01*
X19658Y109988D01*
X19922Y109990D01*
X19927Y109997D01*
X20191Y109999D01*
X20194Y110006D01*
X20202Y110008D01*
X20210Y110007D01*
X20273Y110008D01*
X20279Y110006D01*
X20285Y110008D01*
X20290Y110006D01*
X20293Y110003D01*
X20295Y109999D01*
X20315Y109997D01*
X20321Y109992D01*
X20332Y109982D01*
X20330Y109907D01*
X20327Y109904D01*
X20322Y109903D01*
X20320Y109841D01*
X20313Y109837D01*
X20315Y109683D01*
X20321Y109680D01*
X20323Y109647D01*
X20332Y109640D01*
X20333Y109618D01*
X20342Y109614D01*
X20341Y109605D01*
X20345Y109598D01*
X20349Y109594D01*
X20351Y109583D01*
X20354Y109580D01*
X20357Y109579D01*
X20361Y109563D01*
X20367Y109560D01*
X20369Y109552D01*
X20370Y109546D01*
X20378Y109538D01*
X20379Y109535D01*
X20383Y109533D01*
X20388Y109529D01*
X20389Y109526D01*
X20393Y109524D01*
X20396Y109521D01*
X20397Y109517D01*
X20404Y109512D01*
X20406Y109501D01*
X20427Y109480D01*
X20439Y109478D01*
X20444Y109473D01*
X20445Y109470D01*
X20449Y109468D01*
X20451Y109465D01*
X20453Y109461D01*
X20460Y109456D01*
X20466Y109451D01*
X20477Y109449D01*
X20482Y109442D01*
X20491Y109433D01*
X20504Y109431D01*
X20509Y109425D01*
X20521Y109423D01*
X20530Y109414D01*
X20542Y109413D01*
X20545Y109406D01*
X20555Y109404D01*
X20560Y109406D01*
X20565Y109405D01*
X20576Y109406D01*
X20581Y109401D01*
X20583Y109398D01*
X20643Y109395D01*
X20646Y109392D01*
X20648Y109388D01*
X20661Y109387D01*
X20664Y109390D01*
X20665Y109394D01*
X20668Y109397D01*
X20718Y109399D01*
X20724Y109406D01*
X20741Y109405D01*
X20746Y109407D01*
X20749Y109414D01*
X20757Y109416D01*
X20765Y109414D01*
X20772Y109416D01*
X20780Y109424D01*
X20792Y109426D01*
X20804Y109438D01*
X20805Y109441D01*
X20819Y109443D01*
X20831Y109455D01*
X20833Y109459D01*
X20845Y109461D01*
X20853Y109470D01*
X20857Y109472D01*
X20862Y109479D01*
X20866Y109480D01*
X20868Y109484D01*
X20873Y109489D01*
X20876Y109490D01*
X20878Y109494D01*
X20880Y109497D01*
X20884Y109499D01*
X20889Y109506D01*
X20895Y109509D01*
X20897Y109513D01*
X20900Y109516D01*
X20904Y109518D01*
X20908Y109525D01*
X20914Y109531D01*
X20916Y109542D01*
X20923Y109547D01*
X20932Y109556D01*
X20933Y109569D01*
X20940Y109574D01*
X20951Y109585D01*
X20953Y109596D01*
X20958Y109602D01*
X20960Y109610D01*
X20962Y109615D01*
X20968Y109621D01*
X20970Y109627D01*
X20968Y109633D01*
X20970Y109642D01*
X20973Y109645D01*
X20977Y109647D01*
X20980Y109662D01*
X20987Y109667D01*
X20988Y109699D01*
X20997Y109704D01*
X20996Y109732D01*
X21000Y109738D01*
X21005Y109739D01*
X21007Y109791D01*
X21014Y109795D01*
X21013Y109960D01*
X21008Y109961D01*
X21005Y109964D01*
X21006Y109981D01*
X21005Y109991D01*
X21010Y109996D01*
X21014Y109997D01*
X21012Y110005D01*
X21010Y110008D01*
X21007Y110009D01*
X21009Y110014D01*
X21012Y110017D01*
X21015Y110019D01*
X21017Y110023D01*
X21025Y110025D01*
X21042Y110027D01*
X21046Y110035D01*
X21218Y110037D01*
X21223Y110043D01*
X21326Y110044D01*
X21331Y110040D01*
D02*
G37*
%LPC*%
G36*
X21222Y110033D02*
X21219Y110030D01*
X21217Y110026D01*
X21214Y110023D01*
X21044Y110021D01*
X21040Y110015D01*
X21036Y110014D01*
X21031Y110015D01*
X21024Y110011D01*
X21026Y110001D01*
X21021Y109996D01*
X21016Y109995D01*
X21018Y109961D01*
X21024Y109959D01*
X21026Y109951D01*
X21024Y109795D01*
X21017Y109792D01*
X21015Y109740D01*
X21007Y109735D01*
X21005Y109702D01*
X20998Y109697D01*
X20997Y109677D01*
X20999Y109671D01*
X20996Y109665D01*
X20989Y109662D01*
X20987Y109648D01*
X20985Y109645D01*
X20981Y109643D01*
X20978Y109612D01*
X20970Y109604D01*
X20968Y109592D01*
X20965Y109589D01*
X20962Y109588D01*
X20958Y109573D01*
X20952Y109568D01*
X20943Y109560D01*
X20941Y109552D01*
X20939Y109546D01*
X20924Y109531D01*
X20922Y109519D01*
X20853Y109451D01*
X20842Y109449D01*
X20825Y109431D01*
X20813Y109429D01*
X20802Y109419D01*
X20800Y109415D01*
X20789Y109413D01*
X20785Y109411D01*
X20783Y109407D01*
X20780Y109404D01*
X20749Y109402D01*
X20746Y109399D01*
X20745Y109396D01*
X20721Y109394D01*
X20715Y109385D01*
X20665Y109383D01*
X20660Y109376D01*
X20651Y109375D01*
X20646Y109378D01*
X20644Y109384D01*
X20584Y109387D01*
X20581Y109390D01*
X20579Y109394D01*
X20546Y109396D01*
X20541Y109404D01*
X20518Y109406D01*
X20515Y109409D01*
X20514Y109412D01*
X20499Y109416D01*
X20495Y109422D01*
X20487Y109424D01*
X20481Y109426D01*
X20466Y109441D01*
X20454Y109443D01*
X20429Y109468D01*
X20422Y109470D01*
X20416Y109472D01*
X20396Y109492D01*
X20394Y109504D01*
X20359Y109538D01*
X20357Y109550D01*
X20349Y109558D01*
X20347Y109569D01*
X20344Y109572D01*
X20342Y109573D01*
X20338Y109588D01*
X20332Y109592D01*
X20330Y109600D01*
X20329Y109616D01*
X20320Y109621D01*
X20318Y109644D01*
X20312Y109649D01*
X20310Y109682D01*
X20304Y109684D01*
X20301Y109693D01*
X20303Y109698D01*
X20302Y109834D01*
X20304Y109838D01*
X20311Y109841D01*
X20313Y109903D01*
X20319Y109906D01*
X20321Y109969D01*
X20322Y109970D01*
X20317Y109979D01*
X20314Y109981D01*
X20310Y109987D01*
X20296Y109988D01*
X20293Y109991D01*
X20291Y109995D01*
X20194Y109996D01*
X20188Y109987D01*
X19924Y109985D01*
X19918Y109977D01*
X19656Y109975D01*
X19652Y109969D01*
X19645Y109967D01*
X19637Y109969D01*
X19407Y109967D01*
X19405Y109964D01*
X19403Y109961D01*
X19167Y109959D01*
X19161Y109950D01*
X18916Y109948D01*
X18911Y109941D01*
X18732Y109939D01*
X18725Y109931D01*
X18699Y109932D01*
X18692Y109927D01*
X18676Y109910D01*
X18675Y109906D01*
X18676Y109899D01*
X18673Y109896D01*
X18666Y109893D01*
X18664Y109795D01*
X18657Y109791D01*
X18658Y109775D01*
X18665Y109773D01*
X18667Y109684D01*
X18676Y109677D01*
X18677Y109645D01*
X18683Y109643D01*
X18685Y109635D01*
X18684Y109629D01*
X18685Y109610D01*
X18693Y109606D01*
X18695Y109590D01*
X18702Y109587D01*
X18704Y109564D01*
X18712Y109558D01*
X18714Y109544D01*
X18720Y109540D01*
X18722Y109529D01*
X18730Y109521D01*
X18732Y109509D01*
X18739Y109502D01*
X18741Y109490D01*
X18749Y109482D01*
X18751Y109471D01*
X18754Y109468D01*
X18757Y109467D01*
X18761Y109452D01*
X18767Y109447D01*
X18770Y109444D01*
X18771Y109441D01*
X18775Y109439D01*
X18777Y109427D01*
X18786Y109419D01*
X18788Y109415D01*
X18794Y109410D01*
X18797Y109396D01*
X18804Y109391D01*
X18842Y109353D01*
X18844Y109342D01*
X18937Y109248D01*
X18949Y109246D01*
X18990Y109205D01*
X18991Y109202D01*
X19005Y109200D01*
X19007Y109197D01*
X19009Y109193D01*
X19016Y109188D01*
X19022Y109183D01*
X19033Y109181D01*
X19038Y109174D01*
X19047Y109165D01*
X19061Y109162D01*
X19063Y109159D01*
X19076Y109146D01*
X19087Y109144D01*
X19103Y109129D01*
X19111Y109127D01*
X19116Y109125D01*
X19122Y109119D01*
X19130Y109117D01*
X19136Y109115D01*
X19141Y109109D01*
X19153Y109107D01*
X19156Y109105D01*
X19158Y109101D01*
X19167Y109092D01*
X19182Y109088D01*
X19186Y109082D01*
X19193Y109080D01*
X19199Y109079D01*
X19205Y109073D01*
X19213Y109071D01*
X19219Y109069D01*
X19224Y109063D01*
X19246Y109061D01*
X19248Y109058D01*
X19249Y109055D01*
X19265Y109052D01*
X19270Y109045D01*
X19281Y109043D01*
X19288Y109036D01*
X19296Y109034D01*
X19301Y109032D01*
X19307Y109026D01*
X19321Y109025D01*
X19324Y109018D01*
X19347Y109016D01*
X19351Y109012D01*
X19353Y109008D01*
X19376Y109006D01*
X19379Y108999D01*
X19386Y108998D01*
X19399Y108998D01*
X19405Y108995D01*
X19407Y108991D01*
X19417Y108988D01*
X19423Y108990D01*
X19431Y108988D01*
X19434Y108985D01*
X19434Y108980D01*
X19460Y108978D01*
X19462Y108972D01*
X19495Y108970D01*
X19500Y108961D01*
X19533Y108959D01*
X19536Y108956D01*
X19538Y108952D01*
X19560Y108951D01*
X19566Y108953D01*
X19570Y108950D01*
X19573Y108944D01*
X19606Y108942D01*
X19609Y108939D01*
X19611Y108935D01*
X19651Y108933D01*
X19655Y108929D01*
X19657Y108925D01*
X19707Y108923D01*
X19711Y108919D01*
X19713Y108916D01*
X19774Y108913D01*
X19779Y108906D01*
X19874Y108905D01*
X19880Y108907D01*
X19887Y108902D01*
X19888Y108897D01*
X20155Y108898D01*
X20157Y108905D01*
X20165Y108907D01*
X20171Y108905D01*
X20246Y108907D01*
X20250Y108915D01*
X20312Y108917D01*
X20315Y108923D01*
X20376Y108925D01*
X20381Y108934D01*
X20423Y108935D01*
X20425Y108942D01*
X20433Y108944D01*
X20460Y108945D01*
X20464Y108951D01*
X20472Y108953D01*
X20477Y108951D01*
X20495Y108953D01*
X20498Y108956D01*
X20500Y108960D01*
X20542Y108962D01*
X20547Y108971D01*
X20570Y108972D01*
X20575Y108979D01*
X20608Y108981D01*
X20611Y108988D01*
X20618Y108990D01*
X20628Y108988D01*
X20637Y108993D01*
X20638Y108997D01*
X20647Y108999D01*
X20653Y108998D01*
X20663Y108999D01*
X20666Y109007D01*
X20691Y109008D01*
X20695Y109017D01*
X20718Y109019D01*
X20724Y109026D01*
X20738Y109028D01*
X20740Y109034D01*
X20747Y109036D01*
X20760Y109035D01*
X20766Y109037D01*
X20768Y109043D01*
X20782Y109046D01*
X20785Y109049D01*
X20786Y109052D01*
X20801Y109055D01*
X20805Y109061D01*
X20813Y109063D01*
X20819Y109065D01*
X20825Y109071D01*
X20836Y109073D01*
X20844Y109080D01*
X20855Y109082D01*
X20863Y109090D01*
X20875Y109092D01*
X20878Y109095D01*
X20878Y109098D01*
X20894Y109102D01*
X20898Y109107D01*
X20905Y109109D01*
X20911Y109111D01*
X20917Y109117D01*
X20929Y109119D01*
X20946Y109136D01*
X20958Y109138D01*
X20965Y109146D01*
X20977Y109148D01*
X20989Y109160D01*
X20990Y109163D01*
X21004Y109165D01*
X21016Y109178D01*
X21018Y109182D01*
X21030Y109184D01*
X21039Y109192D01*
X21042Y109194D01*
X21047Y109201D01*
X21051Y109203D01*
X21053Y109207D01*
X21056Y109210D01*
X21067Y109212D01*
X21094Y109239D01*
X21107Y109239D01*
X21112Y109248D01*
X21116Y109250D01*
X21236Y109371D01*
X21238Y109378D01*
X21240Y109384D01*
X21265Y109409D01*
X21267Y109421D01*
X21270Y109424D01*
X21274Y109426D01*
X21279Y109432D01*
X21284Y109438D01*
Y109440D01*
X21286Y109450D01*
X21298Y109459D01*
X21302Y109463D01*
X21304Y109477D01*
X21311Y109482D01*
X21313Y109494D01*
X21329Y109509D01*
X21331Y109517D01*
X21333Y109523D01*
X21338Y109529D01*
X21340Y109536D01*
X21342Y109542D01*
X21348Y109548D01*
X21350Y109569D01*
X21357Y109574D01*
X21360Y109588D01*
X21365Y109590D01*
X21367Y109598D01*
X21365Y109612D01*
X21368Y109616D01*
X21375Y109619D01*
X21377Y109629D01*
X21375Y109635D01*
X21377Y109642D01*
X21380Y109645D01*
X21384Y109647D01*
X21386Y109678D01*
X21387Y109682D01*
X21393Y109684D01*
X21395Y109726D01*
X21404Y109731D01*
X21402Y109856D01*
X21395Y109861D01*
X21393Y109931D01*
X21385Y109935D01*
X21383Y109978D01*
X21377Y109980D01*
X21375Y109988D01*
X21377Y110001D01*
X21355Y110023D01*
X21347Y110025D01*
X21341Y110023D01*
X21333Y110025D01*
X21331Y110028D01*
X21329Y110032D01*
X21222Y110033D01*
D02*
G37*
%LPD*%
D23*
X18709Y102068D02*
G03*
X17805Y101385I2625J-4414D01*
G01*
X22414Y110548D02*
G03*
X21849Y111206I-1882J-1042D01*
G01*
X20920Y111344D02*
G03*
X20340Y111379I-577J-4679D01*
G01*
X18372Y102232D02*
G03*
X17805Y101385I911J-1223D01*
G01*
X20364Y103788D02*
G03*
X21182Y104871I-1601J2061D01*
G01*
X19146Y102995D02*
G03*
X20364Y103788I-2037J4458D01*
G01*
X19146Y102995D02*
G03*
X21039Y103389I-2478J16631D01*
G01*
X21039Y103389D02*
G03*
X21169Y103622I-112J216D01*
G01*
X21182Y104871D02*
G03*
X21169Y103622I62261J-1273D01*
G01*
X14497Y106295D02*
G03*
X13584Y106024I-88J-1378D01*
G01*
X14829Y105408D02*
G03*
X13584Y106024I-2082J-2644D01*
G01*
X14829Y105408D02*
G03*
X14497Y106295I-1186J61D01*
G01*
X10090Y108050D02*
G03*
X12492Y105620I28343J25612D01*
G01*
X10700Y107770D02*
G03*
X10090Y108050I-2665J-5002D01*
G01*
X10472Y108303D02*
G03*
X10700Y107770I1679J404D01*
G01*
X10960Y107930D02*
G03*
X10472Y108303I-4164J-4940D01*
G01*
X10820Y108460D02*
G03*
X10960Y107930I3705J695D01*
G01*
X12839Y106536D02*
G03*
X10820Y108460I-26186J-25452D01*
G01*
X12839Y106536D02*
G03*
X13229Y106704I-64J685D01*
G01*
X13759Y107010D02*
G03*
X13229Y106704I1280J-2828D01*
G01*
X14534Y107210D02*
G03*
X13759Y107010I-27J-1493D01*
G01*
X15068Y107073D02*
G03*
X14534Y107210I-527J-947D01*
G01*
X15464Y106594D02*
G03*
X15068Y107073I-1139J-539D01*
G01*
X12492Y105620D02*
G03*
X11995Y103646I2622J-1709D01*
G01*
Y103646D02*
G03*
X9264Y103406I1020J-27212D01*
G01*
Y103406D02*
G03*
X9798Y103242I1374J3527D01*
G01*
X9125Y103095D02*
G03*
X9798Y103242I-1203J7142D01*
G01*
X9125Y103095D02*
G03*
X9885Y102944I39275J195391D01*
G01*
X9885Y102944D02*
G03*
X9310Y102706I501J-2026D01*
G01*
X12807Y104339D02*
G03*
X12827Y103573I4115J-274D01*
G01*
Y103573D02*
G03*
X12938Y103103I3863J662D01*
G01*
X12741Y102817D02*
G03*
X9310Y102706I-402J-40703D01*
G01*
X12737Y102816D02*
G03*
X12937Y103107I-74J266D01*
G01*
X13016Y104973D02*
G03*
X12807Y104339I1422J-819D01*
G01*
X13430Y105139D02*
G03*
X13016Y104973I-71J-424D01*
G01*
X14361Y104497D02*
G03*
X13430Y105139I-1515J-1201D01*
G01*
X14361Y104497D02*
G03*
X14398Y103783I1180J-297D01*
G01*
X21921Y108010D02*
G03*
X21442Y106912I1970J-1513D01*
G01*
X21921Y108010D02*
G03*
X22443Y108838I-4222J3238D01*
G01*
X22442Y108833D02*
G03*
X22626Y109973I-1620J847D01*
G01*
Y109973D02*
G03*
X22414Y110548I-1858J-360D01*
G01*
X14398Y103783D02*
G03*
X13253Y102195I1351J-2181D01*
G01*
X13256Y102196D02*
G03*
X13390Y100580I2852J-576D01*
G01*
X13392Y100579D02*
G03*
X14412Y99504I1884J767D01*
G01*
X15633Y98793D02*
G03*
X14412Y99504I-6773J-10216D01*
G01*
X16447Y98144D02*
G03*
X15633Y98793I-2222J-1954D01*
G01*
X16768Y96908D02*
G03*
X16447Y98144I-1674J226D01*
G01*
X16165Y95758D02*
G03*
X16768Y96908I-1334J1433D01*
G01*
X15539Y95432D02*
G03*
X16165Y95758I-1202J3063D01*
G01*
X13583Y95230D02*
G03*
X15544Y95431I432J5459D01*
G01*
X12407Y95500D02*
G03*
X13583Y95230I1497J3825D01*
G01*
X12407Y95500D02*
G03*
X12948Y95829I-3052J5630D01*
G01*
X12950Y95830D02*
G03*
X10766Y95885I-1408J-12555D01*
G01*
X14831Y103195D02*
G03*
X13962Y102291I942J-1774D01*
G01*
D02*
G03*
X13827Y101104I1444J-766D01*
G01*
X13827D02*
G03*
X14315Y100184I1522J218D01*
G01*
Y100184D02*
G03*
X15114Y99682I5364J7648D01*
G01*
X16543Y98772D02*
G03*
X15114Y99682I-3530J-3965D01*
G01*
X17334Y97556D02*
G03*
X16543Y98772I-2409J-703D01*
G01*
X17136Y96250D02*
G03*
X17334Y97556I-1737J931D01*
G01*
X15801Y95062D02*
G03*
X17135Y96247I-772J2212D01*
G01*
X14042Y94793D02*
G03*
X15801Y95062I-98J6526D01*
G01*
X12317Y95173D02*
G03*
X14042Y94793I2009J5003D01*
G01*
X12577Y94596D02*
G03*
X12317Y95173I-1416J-291D01*
G01*
X10766Y95885D02*
G03*
X12579Y94600I4609J4582D01*
G01*
X19471Y111341D02*
G03*
X18117Y111254I-134J-8504D01*
G01*
X18117Y111254D02*
G03*
X16774Y111025I407J-6428D01*
G01*
X16774D02*
G03*
X15876Y110478I900J-2490D01*
G01*
D02*
G03*
X15548Y109626I871J-824D01*
G01*
D02*
G03*
X16087Y108665I1064J-35D01*
G01*
X16087D02*
G03*
X17136Y108348I1521J3137D01*
G01*
X17142Y108350D02*
G03*
X18425Y108318I855J8577D01*
G01*
X16732Y105841D02*
G03*
X15871Y105781I-282J-2182D01*
G01*
X16049Y106891D02*
G03*
X16732Y105841I2856J1112D01*
G01*
X15460Y108009D02*
G03*
X15502Y107704I126J-138D01*
G01*
X18649Y105675D02*
G03*
X20177Y107445I-570J2036D01*
G01*
X16855Y106676D02*
G03*
X18649Y105675I2688J2709D01*
G01*
X16609Y107281D02*
G03*
X16855Y106676I1218J143D01*
G01*
X16609Y107281D02*
G03*
X16413Y107479I-282J-82D01*
G01*
X22108Y105521D02*
G03*
X21452Y106901I-1557J106D01*
G01*
X21096Y102520D02*
G03*
X22034Y103108I40J978D01*
G01*
X14822Y103185D02*
G03*
X17615Y102510I2121J2659D01*
G01*
X18293Y102525D02*
G03*
X17347Y102177I545J-2953D01*
G01*
X18293Y102525D02*
G03*
X17501Y101838I210J-1043D01*
G01*
X18372Y102232D02*
G03*
X17501Y101838I81J-1339D01*
G01*
X15430Y108740D02*
X15800Y108370D01*
X13600Y108740D02*
X15430D01*
X14909Y107479D02*
X16049Y106891D01*
X13600Y107740D02*
X14909Y107479D01*
X18135Y108165D02*
X18421Y108320D01*
X17276Y107699D02*
X17562Y107854D01*
X19471Y111341D02*
X19890Y113090D01*
X20340Y111379D01*
X21620Y113090D02*
X21849Y111206D01*
X20920Y111344D02*
X21620Y113090D01*
X15464Y106594D02*
X15870Y105787D01*
X13600Y107740D02*
Y108740D01*
X15446Y107992D02*
X15800Y108370D01*
X15502Y107704D02*
X16410Y107480D01*
X17562Y107854D02*
X18135Y108165D01*
X17276Y107699D02*
X18193Y107656D01*
X18474Y107220D01*
X18652Y107619D01*
X19070Y107571D01*
X19274Y107083D01*
X19483Y107507D01*
X19489Y107508D02*
X20177Y107445D01*
X22034Y103108D02*
X22109Y103636D01*
X17347Y102177D02*
X17615Y102510D01*
X18709Y102068D02*
X19574Y102455D01*
X21096Y102520D01*
X22108Y105521D02*
X22109Y103636D01*
M02*
